<?xml version="1.0" encoding="UTF-8" standalone="no"?>
<!DOCTYPE svg PUBLIC "-//W3C//DTD SVG 1.1//EN" "http://www.w3.org/Graphics/SVG/1.1/DTD/svg11.dtd">
<svg width="5000.00" height="900.00" viewBox="0.00 0.00 5000.00 900.00" xmlns="http://www.w3.org/2000/svg" xmlns:xlink="http://www.w3.org/1999/xlink">
<g stroke-linecap="round" id="Cleaner_2">
<path d="M1546.50,368.50 C1556.01,366.03 1564.37,364.48 1574.53,364.28 C1579.44,364.23 1598.26,365.10 1605.50,365.50 C1613.73,366.19 1622.65,367.29 1632.30,369.33 C1660.81,376.02 1723.20,390.53 1754.83,397.34 C1770.93,400.58 1802.86,406.60 1817.48,408.32 C1827.49,409.28 1840.52,409.99 1849.23,409.82 C1857.74,409.64 1870.29,408.31 1880.67,406.58 C1887.78,405.23 1904.41,401.42 1907.50,400.50 C1915.49,398.10 1930.00,392.19 1938.35,387.98 C1945.06,384.48 1957.69,377.44 1964.50,372.87 C1973.46,366.61 1983.14,359.16 1988.86,353.98 C1993.53,349.72 2003.83,337.35 2008.51,330.64 C2013.55,323.40 2020.29,310.65 2022.87,304.25 C2025.93,296.60 2028.79,283.54 2029.46,274.96 C2030.07,266.67 2028.85,251.86 2026.82,244.32 C2024.85,237.17 2018.84,222.75 2015.26,216.43 C2011.61,210.06 2002.23,199.79 1995.28,194.05 C1989.75,189.50 1976.37,180.77 1970.36,177.61 C1962.93,173.72 1949.47,168.78 1940.83,166.22 C1933.68,164.25 1919.70,160.48 1912.42,159.26 C1906.32,158.25 1897.55,157.29 1887.00,156.40 C1873.95,155.39 1839.25,155.94 1822.45,156.58 C1814.98,157.04 1799.12,158.25 1791.43,159.12 C1785.82,159.86 1769.80,162.74 1761.50,164.50 C1745.78,168.24 1704.62,179.20 1698.90,181.52 C1690.81,184.80 1679.79,188.34 1677.39,189.41 C1672.08,191.74 1659.71,197.23 1652.65,200.38 C1644.68,204.05 1629.89,211.90 1619.77,217.86 C1608.12,225.06 1582.98,243.24 1566.94,255.96 C1560.95,260.92 1549.65,270.50 1544.32,275.12 C1537.69,281.10 1526.08,292.66 1521.11,298.45 C1517.50,302.68 1499.54,326.79 1487.85,344.12 C1482.80,351.81 1473.70,367.26 1471.50,371.50 C1466.97,380.27 1452.66,413.70 1447.67,427.97 C1446.11,432.57 1441.10,451.07 1439.36,458.76 C1437.86,466.31 1434.92,483.92 1434.50,487.50 C1433.63,495.09 1432.99,508.37 1432.98,518.25 C1433.23,528.29 1434.14,539.00 1435.61,546.77 C1436.67,552.35 1440.22,566.45 1443.50,575.19 C1446.71,583.70 1452.62,595.95 1456.25,601.69 C1460.21,607.90 1469.48,618.16 1476.26,625.05 C1481.98,630.61 1493.31,641.03 1499.94,645.03 C1507.12,649.33 1521.76,656.64 1524.15,657.59 C1531.38,660.41 1545.93,663.07 1555.05,664.38 C1566.81,665.80 1580.04,666.75 1587.81,666.62 C1596.29,666.46 1610.60,663.98 1620.13,661.07 C1630.18,657.79 1641.40,653.41 1648.91,649.55 C1656.94,645.40 1665.97,639.65 1673.18,634.06 C1681.40,627.60 1692.75,618.02 1694.43,616.50 C1700.09,611.35 1710.22,599.93 1715.06,594.17 C1720.15,587.90 1731.31,573.21 1734.86,568.12 C1739.53,561.22 1748.54,547.02 1752.51,540.37 C1757.60,531.45 1762.28,521.80 1765.60,512.60 C1767.59,507.10 1770.84,497.89 1772.46,487.49 C1774.34,474.82 1775.23,462.28 1773.82,455.09 C1772.95,450.85 1770.86,446.00 1768.09,440.51 C1765.52,435.53 1762.42,430.62 1761.50,431.50 C1761.19,431.84 1760.23,451.30 1759.72,460.31 C1758.92,470.67 1756.68,486.57 1755.33,493.32 C1753.77,501.04 1749.58,516.56 1747.15,523.44 C1744.35,531.30 1738.24,544.85 1734.05,552.98 C1730.05,560.47 1722.31,572.48 1717.83,578.32 C1712.81,584.84 1704.29,594.04 1697.99,599.76 C1692.08,605.11 1680.33,613.85 1673.55,617.59 C1666.85,621.26 1650.84,627.96 1644.69,629.57 C1637.86,631.34 1621.43,633.41 1615.29,633.65 C1608.63,633.85 1594.38,633.89 1586.54,633.02 C1579.88,632.25 1564.03,628.74 1554.41,626.05 C1545.62,623.50 1532.65,618.40 1527.30,614.85 C1522.11,611.36 1513.80,604.15 1505.58,596.18 C1499.42,590.05 1489.58,578.03 1485.67,570.42 C1482.87,564.95 1475.73,549.14 1474.50,545.13 C1473.23,540.89 1469.80,520.17 1469.50,517.50 C1468.99,512.87 1468.50,497.50 1468.40,492.04 C1468.19,480.76 1468.34,471.32 1469.50,461.50 C1469.95,457.78 1473.07,439.37 1474.73,430.93 C1476.54,422.61 1481.25,404.17 1482.88,399.08 C1485.71,390.32 1490.27,379.40 1495.17,368.67 C1499.36,359.72 1505.64,347.74 1508.26,343.16 C1512.69,335.68 1517.45,328.62 1524.29,319.30 C1536.19,303.81 1556.50,280.36 1563.91,273.12 C1568.91,268.29 1580.73,257.35 1586.17,253.03 C1593.53,247.19 1605.90,238.80 1612.00,234.82 C1628.66,224.43 1655.63,209.19 1667.14,203.98 C1675.62,200.28 1686.02,196.39 1696.04,193.09 C1714.65,187.27 1746.09,179.09 1752.90,177.68 C1759.42,176.34 1778.69,173.68 1785.08,173.22 C1799.84,172.29 1833.03,172.25 1848.16,172.72 C1858.63,173.25 1871.91,174.42 1880.59,175.95 C1891.45,177.90 1925.21,187.60 1935.57,192.55 C1939.70,194.53 1958.39,205.68 1962.64,208.50 C1969.08,212.78 1981.77,222.83 1986.60,228.76 C1988.28,230.83 1997.72,244.72 2000.21,250.40 C2002.44,255.55 2006.62,269.98 2007.06,277.80 C2007.41,284.54 2006.31,298.65 2004.51,307.12 C2003.61,311.35 2001.45,319.08 2000.50,321.50 C1998.08,327.58 1990.31,337.82 1983.80,345.10 C1978.33,351.04 1969.19,358.63 1963.31,362.65 C1958.42,365.97 1943.14,373.65 1937.56,375.55 C1929.55,378.20 1917.35,381.06 1909.65,381.81 C1903.59,382.32 1888.22,383.08 1882.26,382.88 C1873.90,382.58 1860.42,381.03 1849.30,379.33 C1836.80,377.20 1800.60,369.72 1786.38,366.66 C1758.92,359.72 1697.85,344.74 1664.24,336.69 C1656.28,334.92 1634.36,330.27 1629.74,329.50 C1617.16,327.44 1605.05,327.45 1590.15,328.33 C1587.69,328.47 1579.83,328.10 1579.06,328.23 C1577.83,328.46 1576.16,329.78 1574.83,331.40 C1565.65,342.59 1546.26,366.72 1545.00,368.00 C1541.02,372.02 1536.65,373.96 1535.50,374.50" fill="none" stroke="rgb(255, 255, 255)" stroke-width="24.80" stroke-opacity="1.00" stroke-linejoin="round"/>
<path d="M2077.50,214.50 C2080.56,212.68 2084.01,211.53 2088.67,211.16 C2093.35,210.82 2108.92,210.44 2110.08,210.96 C2111.10,211.46 2111.63,212.89 2111.71,214.87 C2111.82,218.33 2111.94,225.56 2111.76,229.36 C2111.56,232.87 2110.15,238.93 2108.67,242.61 C2099.75,264.81 2076.52,322.09 2062.22,357.17 C2049.19,388.95 2022.59,453.86 2009.01,486.98 C2003.89,499.51 1992.70,527.13 1986.64,542.21 C1982.07,554.36 1970.52,586.84 1968.46,594.69 C1966.99,600.31 1963.46,620.14 1962.91,625.89 C1962.51,630.32 1962.53,637.99 1963.31,641.58 C1963.78,643.67 1966.65,651.22 1968.68,653.62 C1970.94,656.19 1975.65,658.54 1979.77,659.16 C1982.97,659.60 1990.58,659.04 1991.90,658.70 C1996.73,657.46 2013.31,647.22 2020.58,642.39 C2028.19,637.14 2045.17,625.25 2047.50,623.50 C2057.02,616.33 2062.42,610.08 2062.50,609.50 C2062.67,607.83 2060.96,605.42 2059.50,605.50 C2058.33,605.59 2041.39,617.43 2034.39,622.35 C2030.06,625.20 2026.68,626.98 2024.28,626.67 C2022.13,626.37 2008.01,626.61 2006.72,625.67 C2005.58,624.79 2004.69,617.04 2004.56,614.78 C2004.20,607.94 2006.48,593.43 2008.50,585.50 C2010.66,577.10 2021.73,546.53 2026.73,533.26 C2032.10,519.48 2043.82,489.75 2050.16,473.81 C2063.20,442.69 2089.39,381.56 2102.54,351.57 C2108.34,338.12 2120.99,308.34 2127.83,292.01 C2133.59,277.52 2144.21,249.88 2148.50,237.50 C2151.50,228.16 2156.44,210.78 2158.40,202.82 C2163.98,179.44 2164.17,172.06 2163.50,171.50 C2163.38,171.41 2150.48,178.03 2138.69,182.90 C2122.60,189.19 2078.94,206.46 2078.65,206.57 C2076.71,207.30 2075.92,208.10 2075.97,209.41 C2076.00,209.95 2077.00,213.00 2077.50,214.50" fill="none" stroke="rgb(255, 255, 255)" stroke-width="24.80" stroke-opacity="1.00" stroke-linejoin="round"/>
<path d="M2354.50,509.50 C2356.49,513.55 2357.72,517.04 2357.63,520.75 C2357.55,523.05 2356.48,531.92 2355.77,534.69 C2354.21,540.60 2347.41,553.03 2343.91,559.18 C2339.80,566.14 2330.42,577.70 2323.36,585.33 C2317.97,590.85 2305.86,602.39 2299.65,608.16 C2293.79,613.39 2280.81,624.46 2274.42,629.25 C2269.10,633.22 2252.71,643.70 2249.50,645.50 C2242.16,649.60 2224.00,657.60 2221.50,658.50 C2215.40,660.68 2203.02,663.00 2195.96,663.46 C2192.02,663.69 2186.22,663.24 2181.89,662.21 C2177.67,661.19 2171.81,659.27 2170.33,658.15 C2167.99,656.31 2162.26,648.58 2160.55,646.04 C2157.77,641.89 2155.12,636.86 2154.31,634.17 C2153.19,630.18 2153.94,613.60 2154.51,605.29 C2155.23,596.72 2156.97,581.25 2158.73,573.84 C2159.54,570.45 2163.63,557.01 2166.99,547.88 C2170.26,539.46 2176.11,526.22 2179.50,519.50 C2182.95,512.92 2190.80,498.24 2194.54,492.18 C2199.80,483.83 2208.25,472.20 2213.10,465.93 C2218.21,459.61 2228.27,447.86 2233.09,442.32 C2238.92,435.89 2248.48,426.51 2254.67,421.28 C2262.63,414.72 2268.08,410.51 2277.18,403.86 C2284.62,398.51 2297.01,390.73 2303.98,386.89 C2310.91,383.21 2325.46,375.97 2331.87,372.98 C2341.02,368.89 2351.52,365.67 2359.50,364.50 C2365.68,363.61 2384.02,362.25 2389.31,362.92 C2393.03,363.42 2397.93,365.61 2400.58,367.98 C2403.19,370.39 2405.88,374.80 2406.52,377.74 C2407.11,380.70 2406.14,386.59 2404.77,390.55 C2402.16,397.95 2395.54,409.74 2390.86,415.79 C2386.09,421.92 2377.29,430.82 2370.65,437.03 C2364.50,442.62 2354.44,450.42 2348.45,454.23 C2342.96,457.70 2331.19,463.70 2321.29,468.20 C2313.55,471.57 2296.02,478.64 2290.66,480.49 C2286.77,481.79 2278.04,483.97 2274.43,484.33 C2267.74,484.97 2259.61,484.03 2257.51,482.95 C2256.23,482.26 2254.79,480.75 2254.09,479.43 C2253.02,477.45 2251.61,476.20 2249.50,475.50 C2247.13,474.76 2231.06,475.66 2231.04,475.66 C2229.73,475.95 2226.51,481.83 2225.80,483.12 C2220.53,493.03 2214.59,505.05 2211.50,512.50 C2209.67,516.94 2203.34,535.17 2201.07,542.51 C2198.13,552.21 2195.06,563.42 2194.33,568.95 C2192.57,582.71 2192.07,607.36 2193.24,613.41 C2193.96,617.04 2197.57,625.06 2198.50,626.50 C2199.67,628.26 2201.98,630.80 2203.39,631.76 C2205.94,633.46 2213.47,635.60 2216.49,636.06 C2222.09,636.89 2240.70,635.36 2245.21,634.15 C2250.01,632.82 2267.31,623.94 2272.67,620.25 C2278.02,616.54 2289.48,606.48 2294.70,601.22 C2300.15,595.69 2308.37,586.17 2314.64,578.33 C2321.07,569.92 2327.73,560.46 2332.46,552.89 C2339.48,541.45 2351.42,516.09 2354.50,509.50" fill="none" stroke="rgb(255, 255, 255)" stroke-width="24.80" stroke-opacity="1.00" stroke-linejoin="round"/>
<path d="M2906.50,658.50 C2913.02,656.69 2927.35,652.65 2935.16,650.43 C2945.30,647.40 2954.79,643.97 2962.29,640.47 C2977.80,633.18 3000.98,618.92 3001.50,617.50 C3001.83,616.50 3000.58,614.14 2999.50,613.50 C2998.30,612.87 2994.07,615.37 2989.96,618.08 C2987.29,619.81 2983.87,620.45 2982.09,621.49 C2980.79,622.24 2978.98,622.60 2976.86,622.56 C2972.38,622.49 2966.17,622.19 2961.92,621.82 C2959.86,621.65 2958.61,621.09 2958.40,620.05 C2958.37,619.85 2958.34,609.93 2958.35,608.64 C2958.38,603.74 2962.28,592.42 2965.20,585.36 C2971.20,571.19 2983.51,545.73 2991.40,529.83 C2998.53,515.97 3013.82,486.40 3021.97,470.69 C3028.78,457.10 3045.62,422.44 3051.12,409.57 C3053.39,403.95 3058.41,389.70 3059.49,385.72 C3060.46,381.95 3060.87,376.89 3059.45,373.20 C3059.23,372.65 3056.89,367.98 3056.50,367.50 C3055.79,366.66 3052.93,364.69 3051.84,364.29 C3049.16,363.37 3040.79,363.71 3038.64,363.95 C3034.45,364.45 3028.72,365.99 3024.65,367.52 C3017.92,370.10 3005.45,376.68 2997.39,381.58 C2991.69,385.19 2977.31,394.53 2973.02,397.68 C2968.34,401.13 2951.51,415.09 2945.34,420.56 C2932.27,432.65 2898.36,465.66 2898.10,465.95 C2896.74,467.40 2896.33,467.57 2894.50,467.50 C2893.33,467.44 2883.64,468.40 2880.97,468.19 C2879.25,468.00 2876.95,466.37 2876.66,464.86 C2876.57,464.30 2877.42,459.31 2877.50,457.50 C2877.60,455.83 2877.13,453.15 2877.12,452.38 C2877.09,450.20 2885.19,430.11 2886.16,427.58 C2888.52,421.30 2894.15,403.90 2896.42,395.80 C2898.31,388.43 2902.33,372.12 2902.65,367.75 C2902.69,366.91 2902.69,363.81 2902.50,363.50 C2901.66,362.30 2898.48,363.51 2887.85,368.01 C2862.47,378.75 2810.78,394.89 2810.50,395.50 C2810.03,396.57 2812.62,400.37 2812.50,401.50 C2812.45,402.03 2811.78,403.03 2810.50,404.50" fill="none" stroke="rgb(255, 255, 255)" stroke-width="24.80" stroke-opacity="1.00" stroke-linejoin="round"/>
<path d="M3272.50,509.50 C3274.49,513.55 3275.72,517.04 3275.63,520.75 C3275.55,523.05 3274.48,531.92 3273.77,534.69 C3272.21,540.60 3265.41,553.03 3261.91,559.18 C3257.80,566.14 3248.42,577.70 3241.36,585.33 C3235.97,590.85 3223.86,602.39 3217.65,608.16 C3211.79,613.39 3198.81,624.46 3192.42,629.25 C3187.10,633.22 3170.71,643.70 3167.50,645.50 C3160.16,649.60 3142.00,657.60 3139.50,658.50 C3133.40,660.68 3121.02,663.00 3113.96,663.46 C3110.02,663.69 3104.22,663.24 3099.89,662.21 C3095.67,661.19 3089.81,659.27 3088.33,658.15 C3085.99,656.31 3080.26,648.58 3078.55,646.04 C3075.77,641.89 3073.12,636.86 3072.31,634.17 C3071.19,630.18 3071.94,613.60 3072.51,605.29 C3073.23,596.72 3074.97,581.25 3076.73,573.84 C3077.54,570.45 3081.63,557.01 3084.99,547.88 C3088.26,539.46 3094.11,526.22 3097.50,519.50 C3100.95,512.92 3108.80,498.24 3112.54,492.18 C3117.80,483.83 3126.25,472.20 3131.10,465.93 C3136.21,459.61 3146.27,447.86 3151.09,442.32 C3156.92,435.89 3166.48,426.51 3172.67,421.28 C3180.63,414.72 3186.08,410.51 3195.18,403.86 C3202.62,398.51 3215.01,390.73 3221.98,386.89 C3228.91,383.21 3243.46,375.97 3249.87,372.98 C3259.02,368.89 3269.52,365.67 3277.50,364.50 C3283.68,363.61 3302.02,362.25 3307.31,362.92 C3311.03,363.42 3315.93,365.61 3318.58,367.98 C3321.19,370.39 3323.88,374.80 3324.52,377.74 C3325.11,380.70 3324.14,386.59 3322.77,390.55 C3320.16,397.95 3313.54,409.74 3308.86,415.79 C3304.09,421.92 3295.29,430.82 3288.65,437.03 C3282.50,442.62 3272.44,450.42 3266.45,454.23 C3260.96,457.70 3249.19,463.70 3239.29,468.20 C3231.55,471.57 3214.02,478.64 3208.66,480.49 C3204.77,481.79 3196.04,483.97 3192.43,484.33 C3185.74,484.97 3177.61,484.03 3175.51,482.95 C3174.23,482.26 3172.79,480.75 3172.09,479.43 C3171.02,477.45 3169.61,476.20 3167.50,475.50 C3165.13,474.76 3149.06,475.66 3149.04,475.66 C3147.73,475.95 3144.51,481.83 3143.80,483.12 C3138.53,493.03 3132.59,505.05 3129.50,512.50 C3127.67,516.94 3121.34,535.17 3119.07,542.51 C3116.13,552.21 3113.06,563.42 3112.33,568.95 C3110.57,582.71 3110.07,607.36 3111.24,613.41 C3111.96,617.04 3115.57,625.06 3116.50,626.50 C3117.67,628.26 3119.98,630.80 3121.39,631.76 C3123.94,633.46 3131.47,635.60 3134.49,636.06 C3140.09,636.89 3158.70,635.36 3163.21,634.15 C3168.01,632.82 3185.31,623.94 3190.67,620.25 C3196.02,616.54 3207.48,606.48 3212.70,601.22 C3218.15,595.69 3226.37,586.17 3232.64,578.33 C3239.07,569.92 3245.73,560.46 3250.46,552.89 C3257.48,541.45 3269.42,516.09 3272.50,509.50" fill="none" stroke="rgb(255, 255, 255)" stroke-width="24.80" stroke-opacity="1.00" stroke-linejoin="round"/>
<path d="M3374.50,419.50 C3373.52,417.64 3372.94,414.86 3373.50,413.50 C3373.94,412.47 3390.52,404.95 3396.31,401.79 C3410.20,394.17 3457.29,362.45 3457.50,362.50 C3458.64,362.84 3458.36,371.77 3458.33,372.45 C3458.06,378.29 3455.47,391.59 3453.05,402.21 C3452.61,404.14 3451.46,407.82 3451.47,410.99 C3451.51,414.68 3451.56,423.88 3451.50,424.50 C3451.32,427.03 3451.53,428.13 3452.50,428.50 C3453.02,428.68 3463.26,429.05 3467.55,428.85 C3469.58,428.73 3472.70,427.91 3473.68,427.14 C3473.87,426.98 3476.61,422.36 3480.00,418.96 C3484.94,414.18 3496.23,403.41 3502.76,397.48 C3510.44,390.88 3523.75,380.43 3529.69,376.48 C3537.09,371.57 3549.59,365.19 3555.92,363.15 C3557.47,362.68 3561.90,361.96 3563.97,361.98 C3566.38,362.01 3569.40,363.19 3571.99,364.78 C3573.84,365.98 3576.48,367.45 3576.50,367.50 C3576.66,367.95 3575.24,368.85 3574.42,371.08 C3572.70,375.59 3570.06,383.38 3568.51,388.01 C3566.64,393.89 3565.60,398.21 3564.50,398.50 C3563.37,398.75 3543.55,396.45 3536.56,397.03 C3532.56,397.38 3525.07,399.04 3521.50,400.24 C3514.62,402.60 3499.72,410.92 3493.58,415.71 C3487.57,420.43 3479.06,428.71 3471.00,437.22 C3463.73,445.18 3456.57,454.15 3452.23,459.90 C3442.57,473.36 3425.38,501.41 3422.68,506.36 C3416.72,517.35 3401.72,554.91 3395.82,570.85 C3384.83,602.59 3372.32,639.01 3372.21,639.30 C3371.56,641.06 3371.46,643.86 3371.15,644.99 C3370.70,646.58 3369.18,647.74 3367.15,648.35 C3367.00,648.39 3344.33,655.29 3336.02,657.73 C3330.76,659.38 3328.28,660.53 3326.50,662.50" fill="none" stroke="rgb(255, 255, 255)" stroke-width="24.80" stroke-opacity="1.00" stroke-linejoin="round"/>
<path d="M2565.50,657.50 C2565.10,653.69 2565.17,650.61 2566.14,646.79 C2567.84,640.11 2572.47,623.47 2574.82,615.20 C2577.26,606.87 2580.92,598.16 2581.50,593.50 C2581.66,592.20 2582.21,582.10 2581.61,579.74 C2581.19,578.28 2579.46,576.44 2578.13,576.18 C2576.94,575.99 2569.89,577.46 2564.98,577.22 C2563.31,577.15 2562.19,577.64 2560.90,578.88 C2556.30,583.35 2545.45,594.09 2538.40,600.18 C2526.65,610.07 2494.44,633.60 2488.50,637.50 C2479.10,643.65 2465.90,650.26 2460.50,652.50 C2458.86,653.18 2449.19,656.71 2446.65,657.48 C2443.41,658.44 2436.36,659.65 2432.83,659.52 C2428.98,659.35 2421.96,657.80 2419.14,656.28 C2416.33,654.70 2412.46,649.73 2411.12,646.35 C2409.99,643.41 2408.38,636.52 2408.25,633.15 C2408.13,629.60 2409.45,616.87 2410.98,606.12 C2412.17,598.34 2416.56,585.40 2419.37,578.42 C2423.68,568.29 2427.15,561.10 2432.29,551.64 C2436.62,543.99 2445.00,531.15 2449.33,525.20 C2453.47,519.65 2462.69,507.82 2467.74,501.72 C2473.05,495.63 2482.02,485.91 2489.59,478.47 C2500.79,467.86 2526.54,446.14 2538.20,437.58 C2550.63,428.85 2577.75,412.33 2590.19,405.90 C2599.85,401.17 2628.95,388.40 2644.04,383.14 C2654.26,379.82 2666.80,376.45 2674.95,374.43 C2682.85,372.65 2700.04,368.95 2706.43,368.07 C2710.06,367.58 2724.08,366.44 2734.35,366.06 C2737.23,366.00 2744.50,366.44 2747.53,367.79 C2749.26,368.60 2751.21,371.00 2751.50,372.50 C2751.76,374.20 2748.44,382.10 2747.50,384.50 C2746.72,386.24 2745.16,389.80 2744.40,391.61 C2743.43,393.68 2741.74,395.83 2740.50,396.50 C2739.55,396.97 2736.89,397.11 2735.65,396.83 C2726.39,394.69 2713.48,394.02 2706.22,393.85 C2697.85,393.84 2681.50,394.00 2674.04,394.30 C2657.60,395.22 2636.69,399.40 2636.50,399.50 C2635.53,400.08 2635.51,405.03 2635.20,410.35 C2635.09,412.76 2635.18,416.16 2635.50,417.50 C2636.11,419.91 2640.40,424.90 2641.77,428.16 C2643.28,431.93 2644.54,438.64 2644.68,442.31 C2644.90,450.00 2643.06,462.64 2640.30,470.80 C2639.07,474.42 2635.82,482.37 2634.25,485.84 C2632.19,490.23 2629.40,495.34 2627.15,498.01 C2625.29,500.25 2623.88,506.25 2623.85,510.76 C2623.85,512.53 2624.07,517.05 2624.19,518.88 C2624.35,521.02 2624.84,522.45 2625.72,522.63 C2626.11,522.70 2644.14,521.66 2647.50,521.50" fill="none" stroke="rgb(255, 255, 255)" stroke-width="24.80" stroke-opacity="1.00" stroke-linejoin="round"/>
<path d="M2328.50,386.50 C2329.78,386.33 2338.75,385.93 2342.89,385.96 C2345.59,385.99 2353.95,386.49 2356.61,387.67 C2357.11,387.90 2363.74,392.63 2364.50,394.50 C2364.64,394.87 2365.17,404.10 2365.19,407.80 C2365.19,411.30 2364.56,419.10 2363.45,422.46 C2361.91,426.91 2352.26,438.31 2346.90,443.57 C2341.61,448.70 2328.56,456.40 2320.69,459.99 C2312.05,463.92 2296.95,469.08 2289.50,470.50 C2281.22,472.05 2269.50,472.30 2257.23,471.80 C2254.45,471.69 2247.15,471.37 2246.95,471.28 C2245.95,470.81 2245.32,468.93 2245.37,467.06 C2245.42,465.36 2245.19,455.24 2245.15,454.10 C2245.11,452.54 2245.65,451.13 2246.66,449.74 C2251.60,443.00 2259.95,433.01 2265.96,427.01 C2271.25,421.85 2284.97,409.36 2288.52,406.44 C2296.38,400.10 2303.31,396.17 2313.50,391.50 C2315.30,390.72 2323.70,387.18 2328.50,386.50 Z" fill="none" stroke="rgb(255, 255, 255)" stroke-width="24.80" stroke-opacity="1.00" stroke-linejoin="round"/>
<path d="M3246.50,386.50 C3247.78,386.33 3256.75,385.93 3260.89,385.96 C3263.59,385.99 3271.95,386.49 3274.61,387.67 C3275.11,387.90 3281.74,392.63 3282.50,394.50 C3282.64,394.87 3283.17,404.10 3283.19,407.80 C3283.19,411.30 3282.56,419.10 3281.45,422.46 C3279.91,426.91 3270.26,438.31 3264.90,443.57 C3259.61,448.70 3246.56,456.40 3238.69,459.99 C3230.05,463.92 3214.95,469.08 3207.50,470.50 C3199.22,472.05 3187.50,472.30 3175.23,471.80 C3172.45,471.69 3165.15,471.37 3164.95,471.28 C3163.95,470.81 3163.32,468.93 3163.37,467.06 C3163.42,465.36 3163.19,455.24 3163.15,454.10 C3163.11,452.54 3163.65,451.13 3164.66,449.74 C3169.60,443.00 3177.95,433.01 3183.96,427.01 C3189.25,421.85 3202.97,409.36 3206.52,406.44 C3214.38,400.10 3221.31,396.17 3231.50,391.50 C3233.30,390.72 3241.70,387.18 3246.50,386.50 Z" fill="none" stroke="rgb(255, 255, 255)" stroke-width="24.80" stroke-opacity="1.00" stroke-linejoin="round"/>
<path d="M2812.50,401.50 C2815.26,400.56 2822.43,398.20 2826.50,397.50 C2829.75,396.96 2838.19,396.59 2841.82,396.93 C2843.66,397.15 2846.38,398.36 2847.16,399.48 C2847.48,399.96 2848.82,407.94 2849.04,411.42 C2849.26,415.16 2848.39,420.10 2847.05,425.19 C2843.98,435.90 2832.77,468.95 2828.54,480.76 C2821.34,499.66 2788.98,575.44 2774.51,608.82 C2771.19,616.40 2765.03,630.38 2762.19,636.78 C2755.18,652.48 2750.06,660.60 2749.50,661.50" fill="none" stroke="rgb(255, 255, 255)" stroke-width="24.80" stroke-opacity="1.00" stroke-linejoin="round"/>
<path d="M2754.50,656.50 C2760.64,654.28 2774.95,649.16 2783.12,646.25 C2788.22,644.56 2792.33,643.71 2792.50,643.50 C2793.07,642.79 2812.38,603.04 2820.50,587.50 C2828.43,573.23 2844.97,547.10 2853.38,534.58 C2862.01,522.31 2880.05,498.25 2890.68,485.98 C2898.94,476.79 2925.10,450.42 2937.32,438.87 C2942.85,433.88 2955.87,422.41 2962.00,417.69 C2968.77,412.50 2981.83,404.28 2985.95,401.57 C2987.22,400.78 2988.68,398.96 2989.50,398.50 C2989.57,398.46 2998.86,398.70 3001.50,398.50 C3003.94,398.34 3007.41,397.80 3007.67,397.87 C3008.71,398.16 3009.86,400.18 3010.06,401.76 C3010.35,404.66 3009.85,413.43 3009.50,415.50 C3008.55,420.94 3004.06,430.44 2999.77,438.64 C2992.70,451.97 2977.19,481.31 2968.75,497.32 C2960.95,512.85 2945.58,544.31 2939.04,558.83 C2933.77,571.16 2922.11,599.51 2917.63,613.32 C2914.33,623.93 2905.43,657.32 2905.50,657.50 C2905.69,657.93 2906.62,658.04 2906.50,658.50 C2906.41,658.85 2905.75,659.85 2904.50,661.50" fill="none" stroke="rgb(255, 255, 255)" stroke-width="24.80" stroke-opacity="1.00" stroke-linejoin="round"/>
<path d="M2608.50,407.50 C2613.13,406.38 2619.63,406.19 2623.93,406.73 C2624.80,406.86 2628.23,407.33 2628.50,407.50 C2629.50,408.17 2629.47,413.47 2629.69,416.49 C2629.98,420.88 2629.66,427.00 2629.06,430.05 C2627.69,436.77 2624.08,448.59 2619.50,459.50 C2616.94,465.57 2597.61,505.38 2591.39,516.72 C2587.50,523.50 2578.67,537.58 2574.27,544.01 C2570.86,548.76 2560.64,561.74 2555.69,567.61 C2550.55,573.51 2539.34,585.19 2533.38,591.09 C2527.23,596.89 2515.66,607.57 2510.24,612.44 C2503.09,618.62 2490.90,627.39 2485.50,629.58 C2481.97,630.97 2476.59,632.10 2472.36,632.28 C2468.81,632.40 2462.05,631.85 2458.14,631.17 C2456.28,630.82 2453.69,629.72 2452.16,628.56 C2450.92,627.58 2449.32,624.94 2448.68,622.97 C2447.18,618.12 2445.64,600.54 2446.12,592.95 C2446.58,586.06 2449.47,571.90 2452.39,560.75 C2454.79,552.12 2459.25,540.79 2463.59,533.14 C2467.21,526.92 2475.41,514.41 2479.65,508.02 C2485.89,499.23 2493.06,490.32 2497.61,484.95 C2502.38,479.48 2511.83,470.13 2519.61,463.10 C2525.61,457.86 2538.33,447.25 2544.14,442.61 C2551.20,437.14 2561.04,430.54 2568.27,426.50 C2583.75,418.06 2602.93,408.91 2608.50,407.50 Z" fill="none" stroke="rgb(255, 255, 255)" stroke-width="24.80" stroke-opacity="1.00" stroke-linejoin="round"/>
<path d="M3374.50,419.50 C3377.35,418.25 3385.50,414.77 3386.50,414.50 C3387.99,414.12 3405.83,414.30 3406.50,414.50 C3407.75,414.91 3408.41,416.42 3408.50,418.50 C3408.53,419.75 3409.11,427.58 3408.92,430.33 C3408.68,433.73 3406.39,445.42 3405.21,450.70 C3402.62,461.73 3388.68,502.26 3383.40,517.09 C3370.77,551.07 3347.00,614.84 3335.86,644.63 C3334.91,647.20 3332.43,654.03 3332.27,654.38 C3331.47,656.17 3331.55,657.03 3332.50,658.50" fill="none" stroke="rgb(255, 255, 255)" stroke-width="24.80" stroke-opacity="1.00" stroke-linejoin="round"/>
<path d="M2653.50,516.50 C2652.19,517.62 2649.97,520.00 2649.00,521.50 C2648.37,522.48 2630.98,564.05 2624.61,579.65 C2622.67,584.64 2619.49,593.49 2618.76,596.46 C2617.52,601.73 2616.96,619.61 2617.50,620.50 C2618.12,621.42 2624.81,621.92 2628.00,622.21 C2635.15,622.48 2645.70,617.80 2650.92,615.02 C2652.93,613.96 2656.85,610.19 2657.50,610.50 C2658.18,610.84 2660.10,613.41 2661.50,615.50" fill="none" stroke="rgb(255, 255, 255)" stroke-width="24.80" stroke-opacity="1.00" stroke-linejoin="round"/>
<path d="M2661.50,615.50 C2653.91,621.22 2647.22,625.65 2637.58,630.60 C2630.80,633.91 2615.33,640.85 2607.45,644.01 C2597.95,647.60 2587.03,651.06 2573.84,654.87 C2570.83,655.80 2564.88,657.61 2562.92,659.15 C2562.58,659.42 2562.11,659.87 2561.50,660.50" fill="none" stroke="rgb(255, 255, 255)" stroke-width="24.80" stroke-opacity="1.00" stroke-linejoin="round"/>
</g>
</svg>
